<svg xmlns="http://www.w3.org/2000/svg" xmlns:xlink="http://www.w3.org/1999/xlink" width="654" height="511" viewBox="465 452 654 511" preserveAspectRatio="xMidYMid meet" version="1.0"><defs><g/><clipPath id="3d1d20b8e3"><path d="M 704 656 L 874 656 L 874 749 L 704 749 Z M 704 656 " clip-rule="nonzero"/></clipPath><clipPath id="10fe445922"><path d="M 706 656.703125 L 873.972656 659.785156 L 872.347656 748.269531 L 704.375 745.1875 Z M 706 656.703125 " clip-rule="nonzero"/></clipPath><clipPath id="2cfda04b94"><path d="M 1 0.640625 L 170 0.640625 L 170 92.320312 L 1 92.320312 Z M 1 0.640625 " clip-rule="nonzero"/></clipPath><clipPath id="d1c53d20b9"><path d="M 2 0.703125 L 169.972656 3.785156 L 168.347656 92.269531 L 0.375 89.1875 Z M 2 0.703125 " clip-rule="nonzero"/></clipPath><clipPath id="2fc5a2427a"><path d="M 0.375 89.375 L 168.34375 92.457031 L 169.96875 3.972656 L 2 0.890625 Z M 0.375 89.375 " clip-rule="nonzero"/></clipPath><clipPath id="f8dfbb00b0"><rect x="0" width="170" y="0" height="93"/></clipPath><clipPath id="7750fc1318"><path d="M 625.214844 656.703125 L 713.902344 656.703125 L 713.902344 745.773438 L 625.214844 745.773438 Z M 625.214844 656.703125 " clip-rule="nonzero"/></clipPath><clipPath id="67fe7f3f8b"><path d="M 0.214844 0.703125 L 88.902344 0.703125 L 88.902344 89.773438 L 0.214844 89.773438 Z M 0.214844 0.703125 " clip-rule="nonzero"/></clipPath><clipPath id="18121cb317"><rect x="0" width="89" y="0" height="90"/></clipPath><clipPath id="4afcdf8397"><path d="M 625.214844 498.773438 L 713.714844 498.773438 L 713.714844 666.773438 L 625.214844 666.773438 Z M 625.214844 498.773438 " clip-rule="nonzero"/></clipPath><clipPath id="82c44670ac"><path d="M 788 452 L 921 452 L 921 585 L 788 585 Z M 788 452 " clip-rule="nonzero"/></clipPath><clipPath id="a6bd128263"><path d="M 776.539062 466.933594 L 855.652344 387.820312 L 985.445312 517.613281 L 906.332031 596.726562 Z M 776.539062 466.933594 " clip-rule="nonzero"/></clipPath><clipPath id="81cb57cdd9"><path d="M 920.460938 452.628906 L 788.945312 454.527344 L 822.296875 487.878906 L 809.890625 500.285156 L 872.800781 563.195312 L 885.207031 550.789062 L 918.558594 584.144531 Z M 920.460938 452.628906 " clip-rule="nonzero"/></clipPath><clipPath id="dd2bd9c73e"><path d="M 0.878906 0.398438 L 132.640625 0.398438 L 132.640625 132.160156 L 0.878906 132.160156 Z M 0.878906 0.398438 " clip-rule="nonzero"/></clipPath><clipPath id="1d396d4ad9"><path d="M -11.460938 14.933594 L 67.652344 -64.179688 L 197.445312 65.613281 L 118.332031 144.726562 Z M -11.460938 14.933594 " clip-rule="nonzero"/></clipPath><clipPath id="557c120fcb"><path d="M 132.460938 0.628906 L 0.945312 2.527344 L 34.296875 35.878906 L 21.890625 48.285156 L 84.800781 111.195312 L 97.207031 98.789062 L 130.558594 132.144531 Z M 132.460938 0.628906 " clip-rule="nonzero"/></clipPath><clipPath id="5943bb8a08"><rect x="0" width="133" y="0" height="133"/></clipPath><clipPath id="8f5587528d"><path d="M 669 498 L 875 498 L 875 704 L 669 704 Z M 669 498 " clip-rule="nonzero"/></clipPath><clipPath id="4023d10d8e"><path d="M 669.558594 640.203125 L 811.121094 498.640625 L 874.105469 561.625 L 732.542969 703.1875 Z M 669.558594 640.203125 " clip-rule="nonzero"/></clipPath><clipPath id="4d2846bae5"><path d="M 0.359375 0.480469 L 205.320312 0.480469 L 205.320312 205.199219 L 0.359375 205.199219 Z M 0.359375 0.480469 " clip-rule="nonzero"/></clipPath><clipPath id="5d4d7582fd"><path d="M 0.558594 142.203125 L 142.121094 0.640625 L 205.105469 63.625 L 63.542969 205.1875 Z M 0.558594 142.203125 " clip-rule="nonzero"/></clipPath><clipPath id="a72c3bf711"><rect x="0" width="206" y="0" height="206"/></clipPath><clipPath id="1e72252da2"><rect x="0" width="654" y="0" height="198"/></clipPath></defs><g clip-path="url(#3d1d20b8e3)"><g clip-path="url(#10fe445922)"><g transform="matrix(1, 0, 0, 1, 704, 656)"><g clip-path="url(#f8dfbb00b0)"><g clip-path="url(#2cfda04b94)"><g clip-path="url(#d1c53d20b9)"><g clip-path="url(#2fc5a2427a)"><path fill="#22C55E" d="M 170.109375 3.8125 L 2 0.726562 C 1.101562 49.667969 40.050781 90.070312 88.992188 90.96875 L 168.480469 92.429688 Z M 170.109375 3.8125 " fill-opacity="1" fill-rule="nonzero"/></g></g></g></g></g></g></g><g clip-path="url(#7750fc1318)"><g transform="matrix(1, 0, 0, 1, 625, 656)"><g clip-path="url(#18121cb317)"><g clip-path="url(#67fe7f3f8b)"><path fill="#22C55E" d="M 0.214844 0.703125 L 88.902344 0.703125 L 88.902344 89.738281 L 0.214844 89.738281 Z M 0.214844 0.703125 " fill-opacity="1" fill-rule="nonzero"/></g></g></g></g><g clip-path="url(#4afcdf8397)"><path fill="#22C55E" d="M 713.878906 498.636719 L 713.878906 666.773438 C 664.925781 666.773438 625.246094 627.089844 625.246094 578.140625 L 625.246094 498.636719 Z M 713.878906 498.636719 " fill-opacity="1" fill-rule="nonzero"/></g><g clip-path="url(#82c44670ac)"><g clip-path="url(#a6bd128263)"><g clip-path="url(#81cb57cdd9)"><g transform="matrix(1, 0, 0, 1, 788, 452)"><g clip-path="url(#5943bb8a08)"><g clip-path="url(#dd2bd9c73e)"><g clip-path="url(#1d396d4ad9)"><g clip-path="url(#557c120fcb)"><path fill="#22C55E" d="M -11.460938 14.933594 L 67.652344 -64.179688 L 197.136719 65.304688 L 118.023438 144.417969 Z M -11.460938 14.933594 " fill-opacity="1" fill-rule="nonzero"/></g></g></g></g></g></g></g></g><g clip-path="url(#8f5587528d)"><g clip-path="url(#4023d10d8e)"><g transform="matrix(1, 0, 0, 1, 669, 498)"><g clip-path="url(#a72c3bf711)"><g clip-path="url(#4d2846bae5)"><g clip-path="url(#5d4d7582fd)"><path fill="#22C55E" d="M 0.558594 142.203125 L 142.027344 0.734375 L 205.011719 63.71875 L 63.542969 205.1875 Z M 0.558594 142.203125 " fill-opacity="1" fill-rule="nonzero"/></g></g></g></g></g></g><g transform="matrix(1, 0, 0, 1, 465, 765)"><g clip-path="url(#1e72252da2)"><g fill="#22C55E" fill-opacity="1"><g transform="translate(1.596632, 156.417206)"><g><path d="M 116.4375 0 L 80.921875 0 L 58.015625 -44.28125 L 44.078125 -29.421875 L 44.078125 0 L 12.28125 0 L 12.28125 -145.4375 L 44.078125 -145.4375 L 44.078125 -62.96875 L 74.109375 -106.9375 L 112.71875 -106.9375 L 81.03125 -65.234375 Z M 116.4375 0 "/></g></g></g><g fill="#22C55E" fill-opacity="1"><g transform="translate(114.178964, 156.417206)"><g><path d="M 55.328125 3.515625 C 48.171875 3.515625 41.582031 2.035156 35.5625 -0.921875 C 29.539062 -3.890625 24.328125 -7.988281 19.921875 -13.21875 C 15.515625 -18.445312 12.109375 -24.5 9.703125 -31.375 C 7.296875 -38.257812 6.09375 -45.625 6.09375 -53.46875 C 6.09375 -61.238281 7.3125 -68.566406 9.75 -75.453125 C 12.195312 -82.335938 15.617188 -88.394531 20.015625 -93.625 C 24.421875 -98.851562 29.617188 -102.945312 35.609375 -105.90625 C 41.597656 -108.863281 48.101562 -110.34375 55.125 -110.34375 C 63.03125 -110.34375 70.03125 -108.863281 76.125 -105.90625 C 82.21875 -102.945312 86.878906 -98.710938 90.109375 -93.203125 L 90.109375 -106.9375 L 120.25 -106.9375 L 120.25 0 L 90 0 L 90 -13.515625 C 86.769531 -8.085938 82.125 -3.890625 76.0625 -0.921875 C 70.007812 2.035156 63.097656 3.515625 55.328125 3.515625 Z M 63.0625 -25.796875 C 67.945312 -25.796875 72.316406 -27.019531 76.171875 -29.46875 C 80.023438 -31.914062 83.085938 -35.21875 85.359375 -39.375 C 87.628906 -43.539062 88.765625 -48.238281 88.765625 -53.46875 C 88.765625 -58.625 87.628906 -63.285156 85.359375 -67.453125 C 83.085938 -71.617188 80.007812 -74.9375 76.125 -77.40625 C 72.238281 -79.882812 67.921875 -81.125 63.171875 -81.125 C 58.492188 -81.125 54.207031 -80.023438 50.3125 -77.828125 C 46.425781 -75.628906 43.332031 -72.460938 41.03125 -68.328125 C 38.726562 -64.203125 37.578125 -59.25 37.578125 -53.46875 C 37.578125 -47.414062 38.757812 -42.335938 41.125 -38.234375 C 43.5 -34.140625 46.628906 -31.039062 50.515625 -28.9375 C 54.410156 -26.84375 58.59375 -25.796875 63.0625 -25.796875 Z M 63.0625 -25.796875 "/></g></g></g><g fill="#22C55E" fill-opacity="1"><g transform="translate(242.034713, 156.417206)"><g><path d="M 53.46875 3.515625 C 45.28125 3.515625 38.207031 2.410156 32.25 0.203125 C 26.300781 -1.992188 21.414062 -4.929688 17.59375 -8.609375 C 13.78125 -12.296875 10.941406 -16.425781 9.078125 -21 C 7.222656 -25.582031 6.296875 -30.28125 6.296875 -35.09375 L 36.75 -34.890625 C 37.019531 -30.960938 38.492188 -27.742188 41.171875 -25.234375 C 43.859375 -22.722656 48.023438 -21.46875 53.671875 -21.46875 C 58.765625 -21.46875 62.359375 -22.378906 64.453125 -24.203125 C 66.554688 -26.023438 67.609375 -28.347656 67.609375 -31.171875 C 67.609375 -34.335938 66.09375 -36.609375 63.0625 -37.984375 C 60.039062 -39.359375 55.394531 -40.457031 49.125 -41.28125 C 43.832031 -41.90625 38.828125 -43.007812 34.109375 -44.59375 C 29.398438 -46.175781 25.238281 -48.328125 21.625 -51.046875 C 18.007812 -53.765625 15.1875 -57.148438 13.15625 -61.203125 C 11.125 -65.265625 10.109375 -70.117188 10.109375 -75.765625 C 10.109375 -82.984375 11.773438 -89.171875 15.109375 -94.328125 C 18.453125 -99.492188 23.269531 -103.453125 29.5625 -106.203125 C 35.863281 -108.960938 43.453125 -110.34375 52.328125 -110.34375 C 61.203125 -110.34375 69.007812 -108.828125 75.75 -105.796875 C 82.5 -102.765625 87.765625 -98.53125 91.546875 -93.09375 C 95.335938 -87.664062 97.234375 -81.300781 97.234375 -74 L 66.15625 -74.21875 C 65.957031 -77.238281 64.753906 -79.726562 62.546875 -81.6875 C 60.347656 -83.65625 56.976562 -84.640625 52.4375 -84.640625 C 48.445312 -84.640625 45.585938 -83.828125 43.859375 -82.203125 C 42.140625 -80.585938 41.28125 -78.679688 41.28125 -76.484375 C 41.28125 -74.972656 41.503906 -73.71875 41.953125 -72.71875 C 42.398438 -71.71875 43.273438 -70.875 44.578125 -70.1875 C 45.890625 -69.5 47.816406 -68.863281 50.359375 -68.28125 C 52.910156 -67.695312 56.320312 -67.09375 60.59375 -66.46875 C 68.707031 -65.300781 75.722656 -63.515625 81.640625 -61.109375 C 87.554688 -58.703125 92.113281 -55.273438 95.3125 -50.828125 C 98.519531 -46.390625 100.125 -40.457031 100.125 -33.03125 C 100.125 -26.769531 98.914062 -21.347656 96.5 -16.765625 C 94.09375 -12.191406 90.773438 -8.40625 86.546875 -5.40625 C 82.316406 -2.414062 77.378906 -0.179688 71.734375 1.296875 C 66.085938 2.773438 60 3.515625 53.46875 3.515625 Z M 53.46875 3.515625 "/></g></g></g><g fill="#22C55E" fill-opacity="1"><g transform="translate(342.439595, 156.417206)"><g><path d="M 44.078125 0 L 12.28125 0 L 12.28125 -145.4375 L 44.078125 -145.4375 L 44.078125 -107.25 L 43.359375 -94.859375 C 46.796875 -99.742188 51.28125 -103.546875 56.8125 -106.265625 C 62.351562 -108.984375 68.804688 -110.34375 76.171875 -110.34375 C 85.878906 -110.34375 93.894531 -108.222656 100.21875 -103.984375 C 106.550781 -99.753906 111.25 -93.679688 114.3125 -85.765625 C 117.375 -77.859375 118.90625 -68.398438 118.90625 -57.390625 L 118.90625 0 L 87.109375 0 L 87.109375 -56.671875 C 87.109375 -62.585938 86.265625 -67.347656 84.578125 -70.953125 C 82.898438 -74.566406 80.582031 -77.179688 77.625 -78.796875 C 74.664062 -80.421875 71.1875 -81.234375 67.1875 -81.234375 C 63.195312 -81.234375 59.429688 -80.0625 55.890625 -77.71875 C 52.347656 -75.382812 49.492188 -72.097656 47.328125 -67.859375 C 45.160156 -63.628906 44.078125 -58.691406 44.078125 -53.046875 Z M 44.078125 0 "/></g></g></g><g fill="#22C55E" fill-opacity="1"><g transform="translate(468.644163, 156.417206)"><g><path d="M 28.078125 -119.53125 C 24.148438 -119.53125 20.789062 -120.300781 18 -121.84375 C 15.21875 -123.394531 13.085938 -125.457031 11.609375 -128.03125 C 10.128906 -130.613281 9.390625 -133.488281 9.390625 -136.65625 C 9.390625 -139.820312 10.113281 -142.695312 11.5625 -145.28125 C 13.007812 -147.863281 15.140625 -149.941406 17.953125 -151.515625 C 20.773438 -153.097656 24.179688 -153.890625 28.171875 -153.890625 C 32.304688 -153.890625 35.78125 -153.097656 38.59375 -151.515625 C 41.414062 -149.941406 43.550781 -147.863281 45 -145.28125 C 46.445312 -142.695312 47.171875 -139.820312 47.171875 -136.65625 C 47.171875 -131.84375 45.535156 -127.785156 42.265625 -124.484375 C 38.992188 -121.179688 34.265625 -119.53125 28.078125 -119.53125 Z M 44.078125 0 L 12.28125 0 L 12.28125 -106.9375 L 44.078125 -106.9375 Z M 44.078125 0 "/></g></g></g><g fill="#22C55E" fill-opacity="1"><g transform="translate(520.44243, 156.417206)"><g><path d="M 62.859375 3.40625 C 54.535156 3.40625 46.894531 1.925781 39.9375 -1.03125 C 32.988281 -3.988281 26.984375 -8.066406 21.921875 -13.265625 C 16.867188 -18.460938 12.96875 -24.5 10.21875 -31.375 C 7.46875 -38.257812 6.09375 -45.625 6.09375 -53.46875 C 6.09375 -61.238281 7.46875 -68.566406 10.21875 -75.453125 C 12.96875 -82.335938 16.867188 -88.394531 21.921875 -93.625 C 26.984375 -98.851562 32.988281 -102.945312 39.9375 -105.90625 C 46.894531 -108.863281 54.570312 -110.34375 62.96875 -110.34375 C 71.425781 -110.34375 79.164062 -108.863281 86.1875 -105.90625 C 93.207031 -102.945312 99.242188 -98.851562 104.296875 -93.625 C 109.359375 -88.394531 113.28125 -82.351562 116.0625 -75.5 C 118.851562 -68.65625 120.25 -61.3125 120.25 -53.46875 C 120.25 -45.625 118.851562 -38.257812 116.0625 -31.375 C 113.28125 -24.5 109.34375 -18.445312 104.25 -13.21875 C 99.15625 -7.988281 93.097656 -3.910156 86.078125 -0.984375 C 79.066406 1.941406 71.328125 3.40625 62.859375 3.40625 Z M 63.171875 -25.90625 C 68.191406 -25.90625 72.609375 -27.070312 76.421875 -29.40625 C 80.242188 -31.75 83.253906 -34.984375 85.453125 -39.109375 C 87.660156 -43.242188 88.765625 -48.03125 88.765625 -53.46875 C 88.765625 -58.90625 87.660156 -63.6875 85.453125 -67.8125 C 83.253906 -71.9375 80.242188 -75.171875 76.421875 -77.515625 C 72.609375 -79.859375 68.191406 -81.03125 63.171875 -81.03125 C 58.210938 -81.03125 53.804688 -79.859375 49.953125 -77.515625 C 46.097656 -75.171875 43.070312 -71.9375 40.875 -67.8125 C 38.675781 -63.6875 37.578125 -58.90625 37.578125 -53.46875 C 37.578125 -48.03125 38.675781 -43.242188 40.875 -39.109375 C 43.070312 -34.984375 46.097656 -31.75 49.953125 -29.40625 C 53.804688 -27.070312 58.210938 -25.90625 63.171875 -25.90625 Z M 63.171875 -25.90625 "/></g></g></g></g></g></svg>
